# This file uses centimeters as units for non-parametric coordinates.

g log1:default1
v -0.207632 0.561533 -0.469794
v -0.250723 0.486897 -0.469794
v -0.272269 0.449579 -0.395158
v -0.250723 0.486897 -0.320523
v -0.207632 0.561533 -0.320523
v -0.186087 0.598850 -0.395158
v -0.463806 0.709434 -0.469794
v -0.506896 0.634799 -0.469794
v -0.528441 0.597481 -0.395158
v -0.506896 0.634799 -0.320523
v -0.463806 0.709434 -0.320523
v -0.442260 0.746752 -0.395158
v -0.229177 0.524215 -0.395158
v -0.485351 0.672116 -0.395158
v -0.249234 0.602883 -0.393968
v -0.265670 0.574415 -0.450904
v -0.298542 0.517479 -0.450904
v -0.314978 0.489011 -0.393968
v -0.298542 0.517479 -0.337032
v -0.265670 0.574415 -0.337032
v -0.460858 0.725064 -0.393968
v -0.477294 0.696596 -0.450904
v -0.510166 0.639660 -0.450904
v -0.526602 0.611192 -0.393968
v -0.510166 0.639660 -0.337032
v -0.477294 0.696596 -0.337032
v -0.442268 0.757262 -0.393968
v -0.467999 0.712695 -0.483102
v -0.519461 0.623562 -0.483102
v -0.545191 0.578994 -0.393968
v -0.519461 0.623562 -0.304834
v -0.467999 0.712695 -0.304834
v -0.230644 0.635081 -0.393968
v -0.256375 0.590514 -0.483102
v -0.307837 0.501380 -0.483102
v -0.333567 0.456813 -0.393968
v -0.307837 0.501380 -0.304834
v -0.256375 0.590514 -0.304834
v 0.222658 0.772370 -0.715976
v -0.222658 0.772370 -0.715976
v -0.445317 0.386714 -0.715976
v -0.222658 0.001059 -0.715976
v 0.222658 0.001059 -0.715976
v 0.445317 0.386714 -0.715976
v 0.222658 0.772370 1.513050
v -0.222658 0.772370 1.513050
v -0.445317 0.386714 1.513050
v -0.222658 0.001059 1.513050
v 0.222658 0.001059 1.513050
v 0.445317 0.386714 1.513050
v 0.000000 0.386714 -0.715976
v 0.000000 0.386714 1.513050
v 0.365264 0.390942 -0.792549
v 0.182632 0.707270 -0.792549
v -0.182632 0.707270 -0.792549
v -0.365264 0.390942 -0.792549
v -0.182632 0.074615 -0.792549
v 0.182632 0.074615 -0.792549
v 0.365264 0.390942 1.589622
v 0.182632 0.707270 1.589622
v -0.182632 0.707270 1.589622
v -0.365264 0.390942 1.589622
v -0.182632 0.074615 1.589622
v 0.182632 0.074615 1.589622
v 0.460635 0.390942 1.589622
v 0.230318 0.789864 1.589622
v -0.230318 0.789864 1.589622
v -0.460635 0.390942 1.589622
v -0.230318 -0.007980 1.589622
v 0.230318 -0.007980 1.589622
v 0.460635 0.390942 -0.792549
v 0.230318 0.789864 -0.792549
v -0.230318 0.789864 -0.792549
v -0.460635 0.390942 -0.792549
v -0.230318 -0.007980 -0.792549
v 0.230318 -0.007980 -0.792549
vt 0.578125 0.020934
vt 0.421875 0.020934
vt 0.343750 0.156250
vt 0.421875 0.291566
vt 0.578125 0.291566
vt 0.656250 0.156250
vt 0.375000 0.312500
vt 0.416667 0.312500
vt 0.458333 0.312500
vt 0.500000 0.312500
vt 0.541667 0.312500
vt 0.583333 0.312500
vt 0.625000 0.312500
vt 0.375000 0.688440
vt 0.416667 0.688440
vt 0.458333 0.688440
vt 0.500000 0.688440
vt 0.541667 0.688440
vt 0.583333 0.688440
vt 0.625000 0.688440
vt 0.578125 0.708434
vt 0.421875 0.708434
vt 0.343750 0.843750
vt 0.421875 0.979066
vt 0.578125 0.979066
vt 0.656250 0.843750
vt 0.500000 0.150000
vt 0.500000 0.837500
vt 0.000000 1.000000
vt 0.166667 1.000000
vt 0.333333 1.000000
vt 0.500000 1.000000
vt 0.666667 1.000000
vt 0.833333 1.000000
vt 1.000000 1.000000
vt 0.000000 0.750000
vt 0.166667 0.750000
vt 0.333333 0.750000
vt 0.500000 0.750000
vt 0.666667 0.750000
vt 0.833333 0.750000
vt 1.000000 0.750000
vt 0.000000 0.500000
vt 0.166667 0.500000
vt 0.333333 0.500000
vt 0.500000 0.500000
vt 0.666667 0.500000
vt 0.833333 0.500000
vt 1.000000 0.500000
vt 0.000000 0.250000
vt 0.166667 0.250000
vt 0.333333 0.250000
vt 0.500000 0.250000
vt 0.666667 0.250000
vt 0.833333 0.250000
vt 1.000000 0.250000
vt 0.000000 0.000000
vt 0.166667 0.000000
vt 0.333333 0.000000
vt 0.500000 0.000000
vt 0.666667 0.000000
vt 0.833333 0.000000
vt 1.000000 0.000000
vt 0.578125 0.020934
vt 0.421875 0.020934
vt 0.343750 0.156250
vt 0.421875 0.291566
vt 0.578125 0.291566
vt 0.656250 0.156250
vt 0.375000 0.312500
vt 0.416667 0.312500
vt 0.458333 0.312500
vt 0.500000 0.312500
vt 0.541667 0.312500
vt 0.583333 0.312500
vt 0.625000 0.312500
vt 0.375000 0.688440
vt 0.416667 0.688440
vt 0.458333 0.688440
vt 0.500000 0.688440
vt 0.541667 0.688440
vt 0.583333 0.688440
vt 0.625000 0.688440
vt 0.578125 0.708434
vt 0.421875 0.708434
vt 0.343750 0.843750
vt 0.421875 0.979066
vt 0.578125 0.979066
vt 0.656250 0.843750
vt 0.500000 0.150000
vt 0.500000 0.837500
vt 0.000000 1.000000
vt 0.166667 1.000000
vt 0.333333 1.000000
vt 0.500000 1.000000
vt 0.666667 1.000000
vt 0.833333 1.000000
vt 1.000000 1.000000
vt 0.000000 0.750000
vt 0.166667 0.750000
vt 0.333333 0.750000
vt 0.500000 0.750000
vt 0.666667 0.750000
vt 0.833333 0.750000
vt 1.000000 0.750000
vt 0.000000 0.500000
vt 0.166667 0.500000
vt 0.333333 0.500000
vt 0.500000 0.500000
vt 0.666667 0.500000
vt 0.833333 0.500000
vt 1.000000 0.500000
vt 0.000000 0.250000
vt 0.166667 0.250000
vt 0.333333 0.250000
vt 0.500000 0.250000
vt 0.666667 0.250000
vt 0.833333 0.250000
vt 1.000000 0.250000
vt 0.000000 0.000000
vt 0.166667 0.000000
vt 0.333333 0.000000
vt 0.500000 0.000000
vt 0.666667 0.000000
vt 0.833333 0.000000
vt 1.000000 0.000000
vn 0.000000 0.000000 -1.000000
vn 0.000000 0.000000 -1.000000
vn 0.000000 0.000000 -1.000000
vn 0.000000 0.000000 -1.000000
vn -0.433013 -0.750000 -0.500000
vn -0.433013 -0.750000 -0.500000
vn -0.433013 -0.750000 -0.500000
vn -0.433013 -0.750000 -0.500000
vn -0.433013 -0.750000 0.500000
vn -0.433013 -0.750000 0.500000
vn -0.433013 -0.750000 0.500000
vn -0.433013 -0.750000 0.500000
vn 0.000000 0.000000 1.000000
vn 0.000000 0.000000 1.000000
vn 0.000000 0.000000 1.000000
vn 0.000000 0.000000 1.000000
vn 0.433013 0.750000 0.500000
vn 0.433013 0.750000 0.500000
vn 0.433013 0.750000 0.500000
vn 0.433013 0.750000 0.500000
vn 0.433013 0.750000 -0.500000
vn 0.433013 0.750000 -0.500000
vn 0.433013 0.750000 -0.500000
vn 0.433013 0.750000 -0.500000
vn 0.866025 -0.500000 0.000000
vn 0.866025 -0.500000 0.000000
vn 0.866025 -0.500000 0.000000
vn 0.866025 -0.500000 0.000000
vn 0.866025 -0.500000 0.000000
vn 0.866025 -0.500000 0.000000
vn 0.866025 -0.500000 0.000000
vn 0.866025 -0.500000 0.000000
vn 0.866025 -0.500000 0.000000
vn 0.866025 -0.500000 0.000000
vn 0.866025 -0.500000 0.000000
vn 0.866025 -0.500000 0.000000
vn 0.866025 -0.500000 0.000000
vn 0.866025 -0.500000 0.000000
vn 0.866025 -0.500000 0.000000
vn 0.866025 -0.500000 0.000000
vn 0.866025 -0.500000 0.000000
vn 0.866025 -0.500000 0.000000
vn -0.866025 0.500000 0.000000
vn -0.866025 0.500000 0.000000
vn -0.866025 0.500000 0.000000
vn -0.866025 0.500000 0.000000
vn -0.866025 0.500000 0.000000
vn -0.866025 0.500000 0.000000
vn -0.866025 0.500000 0.000000
vn -0.866025 0.500000 -0.000000
vn -0.866025 0.500000 0.000000
vn -0.866025 0.500000 -0.000000
vn -0.866025 0.500000 -0.000000
vn -0.866025 0.500000 0.000000
vn -0.866025 0.500000 -0.000000
vn -0.866025 0.500000 0.000000
vn -0.866025 0.500000 0.000000
vn -0.866025 0.500000 0.000000
vn -0.866025 0.500000 0.000000
vn -0.866025 0.500000 0.000000
vn -0.433013 -0.750000 0.500000
vn -0.433013 -0.750000 0.500000
vn -0.433013 -0.750000 0.500000
vn -0.433013 -0.750000 0.500000
vn 0.000000 0.000000 1.000000
vn 0.000000 0.000000 1.000000
vn 0.000000 0.000000 1.000000
vn 0.000000 0.000000 1.000000
vn 0.433013 0.750000 0.500000
vn 0.433013 0.750000 0.500000
vn 0.433013 0.750000 0.500000
vn 0.433013 0.750000 0.500000
vn 0.433013 0.750000 -0.500000
vn 0.433013 0.750000 -0.500000
vn 0.433013 0.750000 -0.500000
vn 0.433013 0.750000 -0.500000
vn 0.000000 0.000000 -1.000000
vn 0.000000 0.000000 -1.000000
vn 0.000000 0.000000 -1.000000
vn 0.000000 0.000000 -1.000000
vn -0.433013 -0.750000 -0.500000
vn -0.433013 -0.750000 -0.500000
vn -0.433013 -0.750000 -0.500000
vn -0.433013 -0.750000 -0.500000
vn -0.866025 0.500000 -0.000000
vn -0.866025 0.500000 0.000000
vn -0.866025 0.500000 0.000000
vn -0.866025 0.500000 -0.000000
vn -0.866025 0.500000 -0.000000
vn -0.866025 0.500000 -0.000000
vn -0.866025 0.500000 -0.000000
vn -0.866025 0.500000 -0.000000
vn -0.866025 0.500000 0.000000
vn -0.866025 0.500000 -0.000000
vn -0.866025 0.500000 -0.000000
vn -0.866025 0.500000 0.000000
vn -0.866025 0.500000 0.000000
vn -0.866025 0.500000 0.000000
vn -0.866025 0.500000 0.000000
vn -0.866025 0.500000 0.000000
vn -0.866025 0.500000 0.000000
vn -0.866025 0.500000 0.000000
vn -0.866025 0.500000 0.000000
vn -0.866025 0.500000 0.000000
vn -0.866025 0.500000 0.000000
vn -0.866025 0.500000 0.000000
vn -0.866025 0.500000 0.000000
vn -0.866025 0.500000 0.000000
vn 0.433013 0.750000 -0.500000
vn 0.433013 0.750000 -0.500000
vn 0.433013 0.750000 -0.500000
vn 0.433013 0.750000 -0.500000
vn 0.000000 0.000000 -1.000000
vn 0.000000 0.000000 -1.000000
vn 0.000000 0.000000 -1.000000
vn 0.000000 0.000000 -1.000000
vn -0.433013 -0.750000 -0.500000
vn -0.433013 -0.750000 -0.500000
vn -0.433013 -0.750000 -0.500000
vn -0.433013 -0.750000 -0.500000
vn -0.433013 -0.750000 0.500000
vn -0.433013 -0.750000 0.500000
vn -0.433013 -0.750000 0.500000
vn -0.433013 -0.750000 0.500000
vn 0.000000 0.000000 1.000000
vn 0.000000 0.000000 1.000000
vn 0.000000 0.000000 1.000000
vn 0.000000 0.000000 1.000000
vn 0.433013 0.750000 0.500000
vn 0.433013 0.750000 0.500000
vn 0.433013 0.750000 0.500000
vn 0.433013 0.750000 0.500000
vn 0.866025 -0.500000 0.000000
vn 0.866025 -0.500000 0.000000
vn 0.866025 -0.500000 0.000000
vn 0.866025 -0.500000 0.000000
vn 0.866025 -0.500000 0.000000
vn 0.866025 -0.500000 0.000000
vn 0.866025 -0.500000 0.000000
vn 0.866025 -0.500000 0.000000
vn 0.866025 -0.500000 0.000000
vn 0.866025 -0.500000 0.000000
vn 0.866025 -0.500000 0.000000
vn 0.866025 -0.500000 0.000000
vn 0.866025 -0.500000 0.000000
vn 0.866025 -0.500000 0.000000
vn 0.866025 -0.500000 0.000000
vn 0.866025 -0.500000 0.000000
vn 0.866025 -0.500000 0.000000
vn 0.866025 -0.500000 0.000000
vn 0.866025 -0.500000 0.000000
vn 0.866025 -0.500000 0.000000
vn 0.866025 -0.500000 0.000000
vn 0.866025 -0.500000 0.000000
vn 0.866025 -0.500000 0.000000
vn 0.866025 -0.500000 0.000000
vn 0.000000 1.000000 0.000000
vn 0.000000 1.000000 0.000000
vn 0.000000 1.000000 0.000000
vn 0.000000 1.000000 0.000000
vn -0.866025 0.500000 -0.000000
vn -0.866025 0.500000 -0.000000
vn -0.866025 0.500000 -0.000000
vn -0.866025 0.500000 -0.000000
vn -0.866025 -0.500000 0.000000
vn -0.866025 -0.500000 0.000000
vn -0.866025 -0.500000 0.000000
vn -0.866025 -0.500000 0.000000
vn 0.000000 -1.000000 0.000000
vn 0.000000 -1.000000 0.000000
vn 0.000000 -1.000000 0.000000
vn 0.000000 -1.000000 0.000000
vn 0.866025 -0.500000 0.000000
vn 0.866025 -0.500000 0.000000
vn 0.866025 -0.500000 0.000000
vn 0.866025 -0.500000 0.000000
vn 0.866025 0.500000 0.000000
vn 0.866025 0.500000 0.000000
vn 0.866025 0.500000 0.000000
vn 0.866025 0.500000 0.000000
vn 0.000000 0.000000 -1.000000
vn 0.000000 0.000000 -1.000000
vn 0.000000 0.000000 -1.000000
vn 0.000000 0.000000 -1.000000
vn 0.000000 0.000000 -1.000000
vn 0.000000 0.000000 -1.000000
vn 0.000000 0.000000 -1.000000
vn 0.000000 0.000000 -1.000000
vn 0.000000 0.000000 -1.000000
vn 0.000000 0.000000 -1.000000
vn 0.000000 0.000000 -1.000000
vn 0.000000 0.000000 -1.000000
vn 0.000000 0.000000 -1.000000
vn 0.000000 0.000000 -1.000000
vn 0.000000 0.000000 -1.000000
vn 0.000000 0.000000 -1.000000
vn 0.000000 0.000000 -1.000000
vn 0.000000 0.000000 -1.000000
vn 0.000000 -0.000000 1.000000
vn 0.000000 -0.000000 1.000000
vn 0.000000 0.000000 1.000000
vn 0.000000 -0.000000 1.000000
vn 0.000000 0.000000 1.000000
vn 0.000000 0.000000 1.000000
vn 0.000000 0.000000 1.000000
vn 0.000000 0.000000 1.000000
vn 0.000000 0.000000 1.000000
vn 0.000000 0.000000 1.000000
vn 0.000000 0.000000 1.000000
vn 0.000000 0.000000 1.000000
vn 0.000000 0.000000 1.000000
vn 0.000000 -0.000000 1.000000
vn 0.000000 0.000000 1.000000
vn 0.000000 -0.000000 1.000000
vn 0.000000 -0.000000 1.000000
vn 0.000000 0.000000 1.000000
vn -0.866025 -0.500000 0.000000
vn -0.866025 -0.500000 0.000000
vn -0.866025 -0.500000 0.000000
vn -0.866025 -0.500000 0.000000
vn 0.000000 -1.000000 0.000000
vn 0.000000 -1.000000 0.000000
vn 0.000000 -1.000000 0.000000
vn 0.000000 -1.000000 0.000000
vn 0.866025 -0.500000 0.000000
vn 0.866025 -0.500000 0.000000
vn 0.866025 -0.500000 0.000000
vn 0.866025 -0.500000 0.000000
vn 0.866025 0.500000 0.000000
vn 0.866025 0.500000 0.000000
vn 0.866025 0.500000 0.000000
vn 0.866025 0.500000 0.000000
vn -0.000000 1.000000 -0.000000
vn -0.000000 1.000000 -0.000000
vn -0.000000 1.000000 -0.000000
vn -0.000000 1.000000 -0.000000
vn -0.866025 0.500000 0.000000
vn -0.866025 0.500000 0.000000
vn -0.866025 0.500000 0.000000
vn -0.866025 0.500000 0.000000
vn 0.000000 0.000001 1.000000
vn 0.000000 0.000000 1.000000
vn 0.000000 0.000000 1.000000
vn 0.000000 0.000001 1.000000
vn 0.000000 0.000000 1.000000
vn 0.000000 0.000001 1.000000
vn 0.000000 0.000001 1.000000
vn 0.000000 0.000000 1.000000
vn 0.000000 -0.000000 1.000000
vn 0.000000 0.000000 1.000000
vn 0.000000 0.000000 1.000000
vn 0.000000 -0.000000 1.000000
vn 0.000000 0.000000 1.000000
vn 0.000000 -0.000000 1.000000
vn 0.000000 -0.000000 1.000000
vn 0.000000 0.000000 1.000000
vn 0.000000 0.000000 1.000000
vn 0.000000 0.000000 1.000000
vn 0.000000 0.000000 1.000000
vn 0.000000 0.000000 1.000000
vn 0.000000 0.000000 1.000000
vn 0.000000 0.000000 1.000000
vn 0.000000 0.000000 1.000000
vn 0.000000 0.000000 1.000000
vn 0.866025 0.500000 0.000000
vn 0.866025 0.500000 0.000000
vn 0.866025 0.500000 0.000000
vn 0.866025 0.500000 0.000000
vn -0.000000 1.000000 -0.000000
vn -0.000000 1.000000 -0.000000
vn -0.000000 1.000000 -0.000000
vn -0.000000 1.000000 -0.000000
vn -0.866025 0.500000 -0.000000
vn -0.866025 0.500000 -0.000000
vn -0.866025 0.500000 -0.000000
vn -0.866025 0.500000 -0.000000
vn -0.866025 -0.500000 0.000000
vn -0.866025 -0.500000 0.000000
vn -0.866025 -0.500000 0.000000
vn -0.866025 -0.500000 0.000000
vn 0.000000 -1.000000 0.000000
vn 0.000000 -1.000000 0.000000
vn 0.000000 -1.000000 0.000000
vn 0.000000 -1.000000 0.000000
vn 0.866025 -0.500000 0.000000
vn 0.866025 -0.500000 0.000000
vn 0.866025 -0.500000 0.000000
vn 0.866025 -0.500000 0.000000
vn 0.000000 0.000001 -1.000000
vn 0.000000 0.000000 -1.000000
vn 0.000000 0.000000 -1.000000
vn 0.000000 0.000001 -1.000000
vn 0.000000 0.000001 -1.000000
vn 0.000000 0.000001 -1.000000
vn 0.000000 0.000001 -1.000000
vn 0.000000 0.000001 -1.000000
vn 0.000000 0.000000 -1.000000
vn 0.000000 0.000001 -1.000000
vn 0.000000 0.000001 -1.000000
vn 0.000000 0.000000 -1.000000
vn 0.000000 0.000000 -1.000000
vn 0.000000 0.000000 -1.000000
vn 0.000000 0.000000 -1.000000
vn 0.000000 0.000000 -1.000000
vn 0.000000 0.000000 -1.000000
vn 0.000000 0.000000 -1.000000
vn 0.000000 0.000000 -1.000000
vn 0.000000 0.000000 -1.000000
vn 0.000000 0.000000 -1.000000
vn 0.000000 0.000000 -1.000000
vn 0.000000 0.000000 -1.000000
vn 0.000000 0.000000 -1.000000
g log1:pCylinder1 log1:polySurface1
f 1/7/1 2/8/2 8/15/3 7/14/4
f 2/8/5 3/9/6 9/16/7 8/15/8
f 3/9/9 4/10/10 10/17/11 9/16/12
f 4/10/13 5/11/14 11/18/15 10/17/16
f 5/11/17 6/12/18 12/19/19 11/18/20
f 6/12/21 1/13/22 7/20/23 12/19/24
f 2/2/25 1/1/26 13/27/27
f 3/3/28 2/2/29 13/27/30
f 4/4/31 3/3/32 13/27/33
f 5/5/34 4/4/35 13/27/36
f 6/6/37 5/5/38 13/27/39
f 1/1/40 6/6/41 13/27/42
f 7/25/43 8/24/44 14/28/45
f 8/24/46 9/23/47 14/28/48
f 9/23/49 10/22/50 14/28/51
f 10/22/52 11/21/53 14/28/54
f 11/21/55 12/26/56 14/28/57
f 12/26/58 7/25/59 14/28/60
g log1:pPipe1 log1:polySurface1
f 16/30/61 15/29/62 21/36/63 22/37/64
f 17/31/65 16/30/66 22/37/67 23/38/68
f 18/32/69 17/31/70 23/38/71 24/39/72
f 19/33/73 18/32/74 24/39/75 25/40/76
f 20/34/77 19/33/78 25/40/79 26/41/80
f 15/35/81 20/34/82 26/41/83 21/42/84
f 22/37/85 21/36/86 27/43/87 28/44/88
f 23/38/89 22/37/90 28/44/91 29/45/92
f 24/39/93 23/38/94 29/45/95 30/46/96
f 25/40/97 24/39/98 30/46/99 31/47/100
f 26/41/101 25/40/102 31/47/103 32/48/104
f 21/42/105 26/41/106 32/48/107 27/49/108
f 28/44/109 27/43/110 33/50/111 34/51/112
f 29/45/113 28/44/114 34/51/115 35/52/116
f 30/46/117 29/45/118 35/52/119 36/53/120
f 31/47/121 30/46/122 36/53/123 37/54/124
f 32/48/125 31/47/126 37/54/127 38/55/128
f 27/49/129 32/48/130 38/55/131 33/56/132
f 34/51/133 33/50/134 15/57/135 16/58/136
f 35/52/137 34/51/138 16/58/139 17/59/140
f 36/53/141 35/52/142 17/59/143 18/60/144
f 37/54/145 36/53/146 18/60/147 19/61/148
f 38/55/149 37/54/150 19/61/151 20/62/152
f 33/56/153 38/55/154 20/62/155 15/63/156
g log1:group2 log1:pasted__group log1:pasted__pasted__pCylinder1 log1:polySurface1
f 39/70/157 40/71/158 46/78/159 45/77/160
f 40/71/161 41/72/162 47/79/163 46/78/164
f 41/72/165 42/73/166 48/80/167 47/79/168
f 42/73/169 43/74/170 49/81/171 48/80/172
f 43/74/173 44/75/174 50/82/175 49/81/176
f 44/75/177 39/76/178 45/83/179 50/82/180
f 40/65/181 39/64/182 51/90/183
f 41/66/184 40/65/185 51/90/186
f 42/67/187 41/66/188 51/90/189
f 43/68/190 42/67/191 51/90/192
f 44/69/193 43/68/194 51/90/195
f 39/64/196 44/69/197 51/90/198
f 45/88/199 46/87/200 52/91/201
f 46/87/202 47/86/203 52/91/204
f 47/86/205 48/85/206 52/91/207
f 48/85/208 49/84/209 52/91/210
f 49/84/211 50/89/212 52/91/213
f 50/89/214 45/88/215 52/91/216
g log1:group2 log1:pasted__group log1:pasted__pasted__pPipe1 log1:polySurface1
f 54/93/217 53/92/218 59/99/219 60/100/220
f 55/94/221 54/93/222 60/100/223 61/101/224
f 56/95/225 55/94/226 61/101/227 62/102/228
f 57/96/229 56/95/230 62/102/231 63/103/232
f 58/97/233 57/96/234 63/103/235 64/104/236
f 53/98/237 58/97/238 64/104/239 59/105/240
f 60/100/241 59/99/242 65/106/243 66/107/244
f 61/101/245 60/100/246 66/107/247 67/108/248
f 62/102/249 61/101/250 67/108/251 68/109/252
f 63/103/253 62/102/254 68/109/255 69/110/256
f 64/104/257 63/103/258 69/110/259 70/111/260
f 59/105/261 64/104/262 70/111/263 65/112/264
f 66/107/265 65/106/266 71/113/267 72/114/268
f 67/108/269 66/107/270 72/114/271 73/115/272
f 68/109/273 67/108/274 73/115/275 74/116/276
f 69/110/277 68/109/278 74/116/279 75/117/280
f 70/111/281 69/110/282 75/117/283 76/118/284
f 65/112/285 70/111/286 76/118/287 71/119/288
f 72/114/289 71/113/290 53/120/291 54/121/292
f 73/115/293 72/114/294 54/121/295 55/122/296
f 74/116/297 73/115/298 55/122/299 56/123/300
f 75/117/301 74/116/302 56/123/303 57/124/304
f 76/118/305 75/117/306 57/124/307 58/125/308
f 71/119/309 76/118/310 58/125/311 53/126/312
