# This file uses centimeters as units for non-parametric coordinates.

g default
v 0.300119 1.629423 -0.136801
v -0.300118 1.629423 -0.136801
v -0.600237 1.629423 0.383019
v -0.300119 1.629423 0.902840
v 0.300118 1.629423 0.902840
v 0.600237 1.629423 0.383019
v 0.485602 2.887801 -0.458067
v -0.485602 2.887801 -0.458067
v -0.971203 2.887801 0.383019
v -0.485602 2.887801 1.224106
v 0.485602 2.887801 1.224106
v 0.971203 2.887801 0.383019
v 0.485602 4.443243 -0.458067
v -0.485602 4.443243 -0.458067
v -0.971203 4.443243 0.383019
v -0.485602 4.443243 1.224106
v 0.485602 4.443243 1.224106
v 0.971203 4.443243 0.383019
v 0.300119 5.701620 -0.136801
v -0.300118 5.701620 -0.136801
v -0.600237 5.701620 0.383019
v -0.300119 5.701620 0.902840
v 0.300118 5.701620 0.902840
v 0.600237 5.701620 0.383019
v 0.000000 1.148766 0.383019
v 0.000000 6.182278 0.383019
vt 0.654509 0.095492
vt 0.345492 0.095492
vt 0.750000 0.345491
vt 0.250000 0.345491
vt 0.190983 0.095492
vt 0.000000 0.345491
vt 0.345491 0.095492
vt 0.250000 0.345491
vt 0.654508 0.095492
vt 0.750000 0.345491
vt 0.809017 0.095492
vt 1.000000 0.345491
vt 0.750000 0.654509
vt 0.250000 0.654509
vt 0.000000 0.654509
vt 0.250000 0.654509
vt 0.750000 0.654509
vt 1.000000 0.654509
vt 0.654509 0.904508
vt 0.345492 0.904508
vt 0.190983 0.904508
vt 0.345491 0.904508
vt 0.654508 0.904508
vt 0.809017 0.904508
vt 0.500000 0.000000
vt 0.500000 1.000000
vn 0.000000 -0.247368 -0.968922
vn 0.000000 -0.247368 -0.968922
vn 0.000000 -0.247368 -0.968922
vn 0.000000 -0.247368 -0.968922
vn 0.000000 -0.247368 -0.968922
vn 0.000000 -0.247368 -0.968922
vn -0.839111 -0.247368 -0.484461
vn -0.839111 -0.247368 -0.484461
vn -0.839111 -0.247368 -0.484461
vn -0.839111 -0.247368 -0.484461
vn -0.839111 -0.247368 -0.484461
vn -0.839111 -0.247368 -0.484461
vn -0.839111 -0.247368 0.484461
vn -0.839111 -0.247368 0.484461
vn -0.839111 -0.247368 0.484461
vn -0.839111 -0.247368 0.484461
vn -0.839111 -0.247368 0.484461
vn -0.839111 -0.247368 0.484461
vn 0.000000 -0.247368 0.968922
vn 0.000000 -0.247368 0.968922
vn 0.000000 -0.247368 0.968922
vn 0.000000 -0.247368 0.968922
vn 0.000000 -0.247368 0.968922
vn 0.000000 -0.247368 0.968922
vn 0.839111 -0.247368 0.484461
vn 0.839111 -0.247368 0.484461
vn 0.839111 -0.247368 0.484461
vn 0.839111 -0.247368 0.484461
vn 0.839111 -0.247368 0.484461
vn 0.839111 -0.247368 0.484461
vn 0.839111 -0.247368 -0.484461
vn 0.839111 -0.247368 -0.484461
vn 0.839111 -0.247368 -0.484461
vn 0.839111 -0.247368 -0.484461
vn 0.839111 -0.247368 -0.484461
vn 0.839111 -0.247368 -0.484461
vn 0.000000 0.000000 -1.000000
vn 0.000000 0.000000 -1.000000
vn 0.000000 0.000000 -1.000000
vn 0.000000 0.000000 -1.000000
vn 0.000000 0.000000 -1.000000
vn 0.000000 0.000000 -1.000000
vn -0.866025 0.000000 -0.500000
vn -0.866025 0.000000 -0.500000
vn -0.866025 0.000000 -0.500000
vn -0.866025 0.000000 -0.500000
vn -0.866025 0.000000 -0.500000
vn -0.866025 0.000000 -0.500000
vn -0.866026 0.000000 0.500000
vn -0.866025 0.000000 0.500000
vn -0.866025 0.000000 0.500000
vn -0.866025 0.000000 0.500000
vn -0.866025 0.000000 0.500000
vn -0.866026 0.000000 0.500000
vn 0.000000 0.000000 1.000000
vn 0.000000 0.000000 1.000000
vn 0.000000 0.000000 1.000000
vn 0.000000 0.000000 1.000000
vn 0.000000 0.000000 1.000000
vn 0.000000 0.000000 1.000000
vn 0.866025 0.000000 0.500000
vn 0.866025 0.000000 0.500000
vn 0.866025 0.000000 0.500000
vn 0.866025 0.000000 0.500000
vn 0.866025 0.000000 0.500000
vn 0.866025 0.000000 0.500000
vn 0.866026 0.000000 -0.500000
vn 0.866026 0.000000 -0.500000
vn 0.866026 0.000000 -0.500000
vn 0.866026 0.000000 -0.500000
vn 0.866026 0.000000 -0.500000
vn 0.866026 0.000000 -0.500000
vn 0.000000 0.247368 -0.968922
vn 0.000000 0.247368 -0.968922
vn 0.000000 0.247368 -0.968922
vn 0.000000 0.247368 -0.968922
vn 0.000000 0.247368 -0.968922
vn 0.000000 0.247368 -0.968922
vn -0.839111 0.247368 -0.484461
vn -0.839111 0.247368 -0.484461
vn -0.839111 0.247368 -0.484461
vn -0.839111 0.247368 -0.484461
vn -0.839111 0.247368 -0.484461
vn -0.839111 0.247368 -0.484461
vn -0.839111 0.247368 0.484461
vn -0.839111 0.247368 0.484461
vn -0.839111 0.247368 0.484461
vn -0.839111 0.247368 0.484461
vn -0.839111 0.247368 0.484461
vn -0.839111 0.247368 0.484461
vn 0.000000 0.247368 0.968922
vn 0.000000 0.247368 0.968922
vn 0.000000 0.247368 0.968922
vn 0.000000 0.247368 0.968922
vn 0.000000 0.247368 0.968922
vn 0.000000 0.247368 0.968922
vn 0.839111 0.247368 0.484461
vn 0.839111 0.247368 0.484461
vn 0.839111 0.247368 0.484461
vn 0.839111 0.247368 0.484461
vn 0.839111 0.247368 0.484461
vn 0.839111 0.247368 0.484461
vn 0.839111 0.247368 -0.484461
vn 0.839111 0.247368 -0.484461
vn 0.839111 0.247368 -0.484461
vn 0.839111 0.247368 -0.484461
vn 0.839111 0.247368 -0.484461
vn 0.839111 0.247368 -0.484461
vn 0.000000 -0.734224 -0.678908
vn 0.000000 -0.734224 -0.678908
vn 0.000000 -0.734224 -0.678908
vn -0.587951 -0.734224 -0.339454
vn -0.587951 -0.734224 -0.339454
vn -0.587951 -0.734224 -0.339454
vn -0.587951 -0.734224 0.339454
vn -0.587951 -0.734224 0.339454
vn -0.587951 -0.734224 0.339454
vn 0.000000 -0.734224 0.678908
vn 0.000000 -0.734224 0.678908
vn 0.000000 -0.734224 0.678908
vn 0.587951 -0.734224 0.339454
vn 0.587951 -0.734224 0.339454
vn 0.587951 -0.734224 0.339454
vn 0.587951 -0.734224 -0.339454
vn 0.587951 -0.734224 -0.339454
vn 0.587951 -0.734224 -0.339454
vn 0.000000 0.734222 -0.678909
vn 0.000000 0.734222 -0.678909
vn 0.000000 0.734222 -0.678909
vn -0.587951 0.734224 -0.339454
vn -0.587951 0.734224 -0.339454
vn -0.587951 0.734224 -0.339454
vn -0.587951 0.734224 0.339454
vn -0.587951 0.734224 0.339454
vn -0.587951 0.734224 0.339454
vn 0.000000 0.734222 0.678909
vn 0.000000 0.734222 0.678909
vn 0.000000 0.734223 0.678909
vn 0.587951 0.734224 0.339454
vn 0.587951 0.734224 0.339454
vn 0.587951 0.734224 0.339454
vn 0.587951 0.734224 -0.339454
vn 0.587951 0.734224 -0.339454
vn 0.587951 0.734224 -0.339454
g Boom:pSphere1
f 1/1/1 2/2/2 7/3/3
f 7/3/4 2/2/5 8/4/6
f 2/2/7 3/5/8 8/4/9
f 8/4/10 3/5/11 9/6/12
f 3/5/13 4/7/14 9/6/15
f 9/6/16 4/7/17 10/8/18
f 4/7/19 5/9/20 10/8/21
f 10/8/22 5/9/23 11/10/24
f 5/9/25 6/11/26 11/10/27
f 11/10/28 6/11/29 12/12/30
f 6/11/31 1/1/32 12/12/33
f 12/12/34 1/1/35 7/3/36
f 7/3/37 8/4/38 13/13/39
f 13/13/40 8/4/41 14/14/42
f 8/4/43 9/6/44 14/14/45
f 14/14/46 9/6/47 15/15/48
f 9/6/49 10/8/50 15/15/51
f 15/15/52 10/8/53 16/16/54
f 10/8/55 11/10/56 16/16/57
f 16/16/58 11/10/59 17/17/60
f 11/10/61 12/12/62 17/17/63
f 17/17/64 12/12/65 18/18/66
f 12/12/67 7/3/68 18/18/69
f 18/18/70 7/3/71 13/13/72
f 13/13/73 14/14/74 19/19/75
f 19/19/76 14/14/77 20/20/78
f 14/14/79 15/15/80 20/20/81
f 20/20/82 15/15/83 21/21/84
f 15/15/85 16/16/86 21/21/87
f 21/21/88 16/16/89 22/22/90
f 16/16/91 17/17/92 22/22/93
f 22/22/94 17/17/95 23/23/96
f 17/17/97 18/18/98 23/23/99
f 23/23/100 18/18/101 24/24/102
f 18/18/103 13/13/104 24/24/105
f 24/24/106 13/13/107 19/19/108
f 2/2/109 1/1/110 25/25/111
f 3/5/112 2/2/113 25/25/114
f 4/7/115 3/5/116 25/25/117
f 5/9/118 4/7/119 25/25/120
f 6/11/121 5/9/122 25/25/123
f 1/1/124 6/11/125 25/25/126
f 19/19/127 20/20/128 26/26/129
f 20/20/130 21/21/131 26/26/132
f 21/21/133 22/22/134 26/26/135
f 22/22/136 23/23/137 26/26/138
f 23/23/139 24/24/140 26/26/141
f 24/24/142 19/19/143 26/26/144
g default
v 0.112669 -0.007519 0.187872
v -0.112669 -0.007519 0.187872
v -0.225337 -0.007519 0.383019
v -0.112669 -0.007519 0.578167
v 0.112669 -0.007519 0.578167
v 0.225337 -0.007519 0.383019
v 0.112669 1.644164 0.187872
v -0.112669 1.644164 0.187872
v -0.225337 1.644164 0.383019
v -0.112669 1.644164 0.578167
v 0.112669 1.644164 0.578167
v 0.225337 1.644164 0.383019
v 0.000000 -0.007519 0.383019
v 0.000000 1.644164 0.383019
vt 0.375000 0.312500
vt 0.416667 0.312500
vt 0.375000 0.688440
vt 0.416667 0.688440
vt 0.458333 0.312500
vt 0.458333 0.688440
vt 0.500000 0.312500
vt 0.500000 0.688440
vt 0.541667 0.312500
vt 0.541667 0.688440
vt 0.583333 0.312500
vt 0.583333 0.688440
vt 0.625000 0.312500
vt 0.625000 0.688440
vt 0.421875 0.020934
vt 0.578125 0.020934
vt 0.500000 0.150000
vt 0.343750 0.156250
vt 0.421875 0.291566
vt 0.578125 0.291566
vt 0.656250 0.156250
vt 0.578125 0.979066
vt 0.421875 0.979066
vt 0.500000 0.837500
vt 0.343750 0.843750
vt 0.421875 0.708434
vt 0.578125 0.708434
vt 0.656250 0.843750
vn 0.000000 0.000000 -1.000000
vn 0.000000 0.000000 -1.000000
vn 0.000000 0.000000 -1.000000
vn 0.000000 0.000000 -1.000000
vn 0.000000 0.000000 -1.000000
vn 0.000000 0.000000 -1.000000
vn -0.866025 0.000000 -0.500000
vn -0.866025 0.000000 -0.500000
vn -0.866025 0.000000 -0.500000
vn -0.866025 0.000000 -0.500000
vn -0.866025 0.000000 -0.500000
vn -0.866025 0.000000 -0.500000
vn -0.866026 0.000000 0.500000
vn -0.866026 0.000000 0.500000
vn -0.866026 0.000000 0.500000
vn -0.866026 0.000000 0.500000
vn -0.866026 0.000000 0.500000
vn -0.866026 0.000000 0.500000
vn 0.000000 0.000000 1.000000
vn 0.000000 0.000000 1.000000
vn 0.000000 0.000000 1.000000
vn 0.000000 0.000000 1.000000
vn 0.000000 0.000000 1.000000
vn 0.000000 0.000000 1.000000
vn 0.866025 0.000000 0.500000
vn 0.866025 0.000000 0.500000
vn 0.866025 0.000000 0.500000
vn 0.866025 0.000000 0.500000
vn 0.866025 0.000000 0.500000
vn 0.866025 0.000000 0.500000
vn 0.866026 0.000000 -0.500000
vn 0.866026 0.000000 -0.500000
vn 0.866026 0.000000 -0.500000
vn 0.866026 0.000000 -0.500000
vn 0.866026 0.000000 -0.500000
vn 0.866026 0.000000 -0.500000
vn 0.000000 -1.000000 0.000000
vn 0.000000 -1.000000 0.000000
vn 0.000000 -1.000000 0.000000
vn 0.000000 -1.000000 0.000000
vn 0.000000 -1.000000 0.000000
vn 0.000000 -1.000000 0.000000
vn 0.000000 -1.000000 0.000000
vn 0.000000 -1.000000 0.000000
vn 0.000000 -1.000000 0.000000
vn 0.000000 -1.000000 0.000000
vn 0.000000 -1.000000 0.000000
vn 0.000000 -1.000000 0.000000
vn 0.000000 -1.000000 0.000000
vn 0.000000 -1.000000 0.000000
vn 0.000000 -1.000000 0.000000
vn 0.000000 -1.000000 0.000000
vn 0.000000 -1.000000 0.000000
vn 0.000000 -1.000000 0.000000
vn 0.000000 1.000000 0.000000
vn 0.000000 1.000000 0.000000
vn 0.000000 1.000000 0.000000
vn 0.000000 1.000000 0.000000
vn 0.000000 1.000000 0.000000
vn 0.000000 1.000000 0.000000
vn 0.000000 1.000000 0.000000
vn 0.000000 1.000000 0.000000
vn 0.000000 1.000000 0.000000
vn 0.000000 1.000000 0.000000
vn 0.000000 1.000000 0.000000
vn 0.000000 1.000000 0.000000
vn 0.000000 1.000000 0.000000
vn 0.000000 1.000000 0.000000
vn 0.000000 1.000000 0.000000
vn 0.000000 1.000000 0.000000
vn 0.000000 1.000000 0.000000
vn 0.000000 1.000000 0.000000
g Boom:pCylinder1
f 27/27/145 28/28/146 33/29/147
f 33/29/148 28/28/149 34/30/150
f 28/28/151 29/31/152 34/30/153
f 34/30/154 29/31/155 35/32/156
f 29/31/157 30/33/158 35/32/159
f 35/32/160 30/33/161 36/34/162
f 30/33/163 31/35/164 36/34/165
f 36/34/166 31/35/167 37/36/168
f 31/35/169 32/37/170 37/36/171
f 37/36/172 32/37/173 38/38/174
f 32/37/175 27/39/176 38/38/177
f 38/38/178 27/39/179 33/40/180
f 28/41/181 27/42/182 39/43/183
f 29/44/184 28/41/185 39/43/186
f 30/45/187 29/44/188 39/43/189
f 31/46/190 30/45/191 39/43/192
f 32/47/193 31/46/194 39/43/195
f 27/42/196 32/47/197 39/43/198
f 33/48/199 34/49/200 40/50/201
f 34/49/202 35/51/203 40/50/204
f 35/51/205 36/52/206 40/50/207
f 36/52/208 37/53/209 40/50/210
f 37/53/211 38/54/212 40/50/213
f 38/54/214 33/48/215 40/50/216
