# This file uses centimeters as units for non-parametric coordinates.

mtllib pineTreeFixed.mtl
g default
v 0.173943 0.000000 -0.325798
v -0.176057 0.000000 -0.325798
v -0.351057 0.000000 -0.022689
v -0.176058 0.000000 0.280420
v 0.173943 0.000000 0.280420
v 0.348943 0.000000 -0.022689
v 0.173943 1.229715 -0.325798
v -0.176057 1.229715 -0.325798
v -0.351057 1.229715 -0.022689
v -0.176058 1.229715 0.280420
v 0.173943 1.229715 0.280420
v 0.348943 1.229715 -0.022689
v -0.001057 0.000000 -0.022689
v -0.001057 1.229715 -0.022689
vt 0.578125 0.020934
vt 0.421875 0.020934
vt 0.343750 0.156250
vt 0.421875 0.291566
vt 0.578125 0.291566
vt 0.656250 0.156250
vt 0.375000 0.312500
vt 0.416667 0.312500
vt 0.458333 0.312500
vt 0.500000 0.312500
vt 0.541667 0.312500
vt 0.583333 0.312500
vt 0.625000 0.312500
vt 0.375000 0.688440
vt 0.416667 0.688440
vt 0.458333 0.688440
vt 0.500000 0.688440
vt 0.541667 0.688440
vt 0.583333 0.688440
vt 0.625000 0.688440
vt 0.578125 0.708434
vt 0.421875 0.708434
vt 0.343750 0.843750
vt 0.421875 0.979066
vt 0.578125 0.979066
vt 0.656250 0.843750
vt 0.500000 0.150000
vt 0.500000 0.837500
vn 0.000000 0.000000 -1.000000
vn 0.000000 0.000000 -1.000000
vn 0.000000 0.000000 -1.000000
vn 0.000000 0.000000 -1.000000
vn -0.866025 0.000000 -0.500000
vn -0.866025 0.000000 -0.500000
vn -0.866025 0.000000 -0.500000
vn -0.866025 0.000000 -0.500000
vn -0.866026 0.000000 0.500000
vn -0.866026 0.000000 0.500000
vn -0.866026 0.000000 0.500000
vn -0.866026 0.000000 0.500000
vn -0.000000 0.000000 1.000000
vn -0.000000 0.000000 1.000000
vn -0.000000 0.000000 1.000000
vn -0.000000 0.000000 1.000000
vn 0.866025 0.000000 0.500000
vn 0.866025 0.000000 0.500000
vn 0.866025 0.000000 0.500000
vn 0.866025 0.000000 0.500000
vn 0.866026 0.000000 -0.500000
vn 0.866026 0.000000 -0.500000
vn 0.866026 0.000000 -0.500000
vn 0.866026 0.000000 -0.500000
vn 0.000000 -1.000000 -0.000000
vn 0.000000 -1.000000 0.000000
vn 0.000000 -1.000000 -0.000000
vn 0.000000 -1.000000 -0.000000
vn 0.000000 -1.000000 -0.000000
vn 0.000000 -1.000000 -0.000000
vn 0.000000 -1.000000 0.000000
vn 0.000000 1.000000 -0.000000
vn 0.000000 1.000000 -0.000000
vn 0.000000 1.000000 -0.000000
vn 0.000000 1.000000 0.000000
vn 0.000000 1.000000 -0.000000
vn 0.000000 1.000000 -0.000000
vn 0.000000 1.000000 -0.000000
g pCylinder1
usemtl initialShadingGroup
f 1/7/1 2/8/2 8/15/3 7/14/4
f 2/8/5 3/9/6 9/16/7 8/15/8
f 3/9/9 4/10/10 10/17/11 9/16/12
f 4/10/13 5/11/14 11/18/15 10/17/16
f 5/11/17 6/12/18 12/19/19 11/18/20
f 6/12/21 1/13/22 7/20/23 12/19/24
f 2/2/25 1/1/26 13/27/27
f 3/3/28 2/2/25 13/27/27
f 4/4/29 3/3/28 13/27/27
f 5/5/30 4/4/29 13/27/27
f 6/6/31 5/5/30 13/27/27
f 1/1/26 6/6/31 13/27/27
f 7/25/32 8/24/33 14/28/34
f 8/24/33 9/23/35 14/28/34
f 9/23/35 10/22/36 14/28/34
f 10/22/36 11/21/37 14/28/34
f 11/21/37 12/26/38 14/28/34
f 12/26/38 7/25/32 14/28/34
g default
v 0.657450 0.876242 -1.138736
v -0.657450 0.876242 -1.138737
v -1.314900 0.876242 -0.000000
v -0.657450 0.876242 1.138736
v 0.657450 0.876242 1.138737
v 1.314900 0.876242 0.000000
v 0.000000 4.412553 0.000000
vt 0.625000 0.033494
vt 0.375000 0.033494
vt 0.250000 0.250000
vt 0.375000 0.466506
vt 0.625000 0.466506
vt 0.750000 0.250000
vt 0.250000 0.500000
vt 0.333333 0.500000
vt 0.416667 0.500000
vt 0.500000 0.500000
vt 0.583333 0.500000
vt 0.666667 0.500000
vt 0.750000 0.500000
vt 0.500000 1.000000
vn 0.000000 -1.000000 0.000000
vn 0.000000 -1.000000 0.000000
vn 0.000000 -1.000000 0.000000
vn 0.000000 -1.000000 0.000000
vn 0.000000 -1.000000 0.000000
vn 0.000000 -1.000000 0.000000
vn 0.000000 0.306513 -0.951867
vn 0.000000 0.306513 -0.951867
vn 0.000000 0.306513 -0.951867
vn -0.824341 0.306513 -0.475933
vn -0.824341 0.306513 -0.475933
vn -0.824341 0.306513 -0.475933
vn -0.824341 0.306513 0.475933
vn -0.824341 0.306513 0.475933
vn -0.824341 0.306513 0.475933
vn -0.000000 0.306513 0.951867
vn -0.000000 0.306513 0.951867
vn -0.000000 0.306513 0.951867
vn 0.824341 0.306513 0.475933
vn 0.824341 0.306513 0.475933
vn 0.824341 0.306513 0.475933
vn 0.824341 0.306513 -0.475933
vn 0.824341 0.306513 -0.475933
vn 0.824341 0.306513 -0.475933
g base1
usemtl initialShadingGroup
f 15/29/39 20/34/40 19/33/41 18/32/42 17/31/43 16/30/44
f 15/35/45 16/36/46 21/42/47
f 16/36/48 17/37/49 21/42/50
f 17/37/51 18/38/52 21/42/53
f 18/38/54 19/39/55 21/42/56
f 19/39/57 20/40/58 21/42/59
f 20/40/60 15/41/61 21/42/62
g default
v 0.550000 1.997312 -0.952628
v -0.550000 1.997312 -0.952628
v -1.100000 1.997312 -0.000000
v -0.550000 1.997312 0.952628
v 0.550000 1.997312 0.952628
v 1.100000 1.997312 0.000000
v 0.000000 4.997312 0.000000
vt 0.625000 0.033494
vt 0.375000 0.033494
vt 0.250000 0.250000
vt 0.375000 0.466506
vt 0.625000 0.466506
vt 0.750000 0.250000
vt 0.250000 0.500000
vt 0.333333 0.500000
vt 0.416667 0.500000
vt 0.500000 0.500000
vt 0.583333 0.500000
vt 0.666667 0.500000
vt 0.750000 0.500000
vt 0.500000 1.000000
vn 0.000000 -1.000000 0.000000
vn 0.000000 -1.000000 0.000000
vn 0.000000 -1.000000 0.000000
vn 0.000000 -1.000000 0.000000
vn 0.000000 -1.000000 0.000000
vn 0.000000 -1.000000 0.000000
vn 0.000000 0.302650 -0.953102
vn 0.000000 0.302650 -0.953102
vn 0.000000 0.302650 -0.953102
vn -0.825410 0.302650 -0.476551
vn -0.825410 0.302650 -0.476551
vn -0.825410 0.302650 -0.476551
vn -0.825410 0.302650 0.476551
vn -0.825410 0.302650 0.476551
vn -0.825410 0.302650 0.476551
vn 0.000000 0.302650 0.953102
vn 0.000000 0.302650 0.953102
vn 0.000000 0.302650 0.953102
vn 0.825410 0.302651 0.476551
vn 0.825410 0.302651 0.476551
vn 0.825410 0.302650 0.476551
vn 0.825410 0.302650 -0.476551
vn 0.825410 0.302651 -0.476551
vn 0.825410 0.302650 -0.476551
g mid1
usemtl initialShadingGroup
f 22/43/63 27/48/64 26/47/65 25/46/66 24/45/67 23/44/68
f 22/49/69 23/50/70 28/56/71
f 23/50/72 24/51/73 28/56/74
f 24/51/75 25/52/76 28/56/77
f 25/52/78 26/53/79 28/56/80
f 26/53/81 27/54/82 28/56/83
f 27/54/84 22/55/85 28/56/86
g default
v -1.253342 1.391871 0.019332
v -0.701772 0.968154 1.199430
v 0.566568 1.609990 1.012839
v 1.312802 1.051992 0.009566
v 0.612135 1.321092 -1.053346
v -0.716004 1.051992 -1.208641
v -0.010336 5.051349 0.013613
vt 0.625000 0.033494
vt 0.375000 0.033494
vt 0.250000 0.250000
vt 0.375000 0.466506
vt 0.625000 0.466506
vt 0.750000 0.250000
vt 0.250000 0.500000
vt 0.333333 0.500000
vt 0.416667 0.500000
vt 0.500000 0.500000
vt 0.583333 0.500000
vt 0.666667 0.500000
vt 0.750000 0.500000
vt 0.500000 1.000000
vn 0.029733 -0.998313 0.049875
vn 0.029733 -0.998313 0.049875
vn 0.029733 -0.998313 0.049875
vn 0.029733 -0.998313 0.049875
vn 0.029733 -0.998313 0.049875
vn 0.029733 -0.998313 0.049875
vn -0.826552 0.281515 0.487403
vn -0.826552 0.281515 0.487403
vn -0.826552 0.281515 0.487403
vn 0.000160 0.278866 0.960330
vn 0.000160 0.278866 0.960330
vn 0.000160 0.278866 0.960330
vn 0.838355 0.276884 0.469571
vn 0.838355 0.276884 0.469571
vn 0.838355 0.276884 0.469571
vn 0.833103 0.276107 -0.479275
vn 0.833103 0.276107 -0.479275
vn 0.833103 0.276107 -0.479275
vn 0.054624 0.283005 -0.957562
vn 0.054624 0.283005 -0.957562
vn 0.054624 0.283005 -0.957562
vn -0.846013 0.286661 -0.449541
vn -0.846013 0.286661 -0.449541
vn -0.846013 0.286661 -0.449541
g base_s
usemtl initialShadingGroup
f 29/57/87 34/62/88 33/61/89 32/60/90 31/59/91 30/58/92
f 29/63/93 30/64/94 35/70/95
f 30/64/96 31/65/97 35/70/98
f 31/65/99 32/66/100 35/70/101
f 32/66/102 33/67/103 35/70/104
f 33/67/105 34/68/106 35/70/107
f 34/68/108 29/69/109 35/70/110
g default
v 0.334499 3.509418 -0.579370
v -0.334499 3.509418 -0.579370
v -0.668998 3.509418 -0.000000
v -0.334499 3.509418 0.579370
v 0.334499 3.509418 0.579370
v 0.668998 3.509418 0.000000
v 0.000000 5.405182 0.000000
vt 0.625000 0.033494
vt 0.375000 0.033494
vt 0.250000 0.250000
vt 0.375000 0.466506
vt 0.625000 0.466506
vt 0.750000 0.250000
vt 0.250000 0.500000
vt 0.333333 0.500000
vt 0.416667 0.500000
vt 0.500000 0.500000
vt 0.583333 0.500000
vt 0.666667 0.500000
vt 0.750000 0.500000
vt 0.500000 1.000000
vn 0.000000 -1.000000 -0.000000
vn 0.000000 -1.000000 -0.000000
vn 0.000000 -1.000000 -0.000000
vn 0.000000 -1.000000 -0.000000
vn 0.000000 -1.000000 -0.000000
vn 0.000000 -1.000000 -0.000000
vn 0.000000 0.292268 -0.956336
vn 0.000000 0.292268 -0.956336
vn 0.000000 0.292268 -0.956336
vn -0.828211 0.292268 -0.478168
vn -0.828211 0.292268 -0.478168
vn -0.828211 0.292268 -0.478168
vn -0.828212 0.292268 0.478168
vn -0.828212 0.292268 0.478168
vn -0.828212 0.292268 0.478168
vn -0.000000 0.292268 0.956336
vn -0.000000 0.292268 0.956336
vn -0.000000 0.292268 0.956336
vn 0.828212 0.292268 0.478168
vn 0.828212 0.292268 0.478168
vn 0.828212 0.292268 0.478168
vn 0.828212 0.292268 -0.478168
vn 0.828212 0.292268 -0.478168
vn 0.828212 0.292269 -0.478168
g top group
usemtl initialShadingGroup
f 36/71/111 41/76/112 40/75/113 39/74/114 38/73/115 37/72/116
f 36/77/117 37/78/118 42/84/119
f 37/78/120 38/79/121 42/84/122
f 38/79/123 39/80/124 42/84/125
f 39/80/126 40/81/127 42/84/128
f 40/81/129 41/82/130 42/84/131
f 41/82/132 36/83/133 42/84/134
g default
v 0.292255 3.847305 -0.511623
v -0.322915 3.646456 -0.564891
v -0.546925 3.950697 -0.000000
v -0.311934 3.686196 0.544122
v 0.290468 3.813755 0.508410
v 0.668998 3.686196 0.000000
v 0.000000 5.581961 0.000000
vt 0.625000 0.033494
vt 0.375000 0.033494
vt 0.250000 0.250000
vt 0.375000 0.466506
vt 0.625000 0.466506
vt 0.750000 0.250000
vt 0.250000 0.500000
vt 0.333333 0.500000
vt 0.416667 0.500000
vt 0.500000 0.500000
vt 0.583333 0.500000
vt 0.666667 0.500000
vt 0.750000 0.500000
vt 0.500000 1.000000
vn -0.058059 -0.998313 0.000812
vn -0.058059 -0.998313 0.000812
vn -0.058059 -0.998313 0.000812
vn -0.058059 -0.998313 0.000812
vn -0.058059 -0.998313 0.000812
vn -0.058059 -0.998313 0.000812
vn -0.008828 0.281515 -0.959516
vn -0.008828 0.281515 -0.959516
vn -0.008828 0.281515 -0.959516
vn -0.831750 0.278866 -0.480027
vn -0.831750 0.278866 -0.480026
vn -0.831750 0.278866 -0.480027
vn -0.825838 0.276884 0.491251
vn -0.825838 0.276884 0.491251
vn -0.825838 0.276884 0.491251
vn -0.001487 0.276107 0.961126
vn -0.001487 0.276107 0.961126
vn -0.001487 0.276107 0.961126
vn 0.801961 0.283005 0.526086
vn 0.801961 0.283005 0.526086
vn 0.801961 0.283005 0.526086
vn 0.812321 0.286661 -0.507898
vn 0.812321 0.286661 -0.507898
vn 0.812321 0.286661 -0.507898
g top_s group1
usemtl initialShadingGroup
f 43/85/135 48/90/136 47/89/137 46/88/138 45/87/139 44/86/140
f 43/91/141 44/92/142 49/98/143
f 44/92/144 45/93/145 49/98/146
f 45/93/147 46/94/148 49/98/149
f 46/94/150 47/95/151 49/98/152
f 47/95/153 48/96/154 49/98/155
f 48/96/156 43/97/157 49/98/158
g default
v -0.489506 2.529126 -0.807584
v -1.060274 2.205029 0.009106
v -0.451603 2.695962 0.777910
v 0.498372 2.269155 0.888529
v 0.934493 2.474988 0.017893
v 0.529423 2.269155 -0.921277
v -0.010336 5.328222 0.013613
vt 0.625000 0.033494
vt 0.375000 0.033494
vt 0.250000 0.250000
vt 0.375000 0.466506
vt 0.625000 0.466506
vt 0.750000 0.250000
vt 0.250000 0.500000
vt 0.333333 0.500000
vt 0.416667 0.500000
vt 0.500000 0.500000
vt 0.583333 0.500000
vt 0.666667 0.500000
vt 0.750000 0.500000
vt 0.500000 1.000000
vn -0.028327 -0.998313 0.050687
vn -0.028327 -0.998313 0.050687
vn -0.028327 -0.998313 0.050687
vn -0.028327 -0.998313 0.050687
vn -0.028327 -0.998313 0.050687
vn -0.028327 -0.998313 0.050687
vn -0.835380 0.281515 -0.472113
vn -0.835380 0.281515 -0.472113
vn -0.835380 0.281515 -0.472113
vn -0.831590 0.278866 0.480303
vn -0.831590 0.278866 0.480303
vn -0.831590 0.278866 0.480303
vn 0.012517 0.276884 0.960822
vn 0.012517 0.276884 0.960822
vn 0.012517 0.276884 0.960822
vn 0.831616 0.276107 0.481851
vn 0.831616 0.276107 0.481851
vn 0.831616 0.276107 0.481851
vn 0.856585 0.283005 -0.431476
vn 0.856585 0.283005 -0.431475
vn 0.856585 0.283005 -0.431476
vn -0.033692 0.286661 -0.957440
vn -0.033692 0.286661 -0.957440
vn -0.033692 0.286661 -0.957440
g mid_s group2
usemtl initialShadingGroup
f 50/99/159 55/104/160 54/103/161 53/102/162 52/101/163 51/100/164
f 50/105/165 51/106/166 56/112/167
f 51/106/168 52/107/169 56/112/170
f 52/107/171 53/108/172 56/112/173
f 53/108/174 54/109/175 56/112/176
f 54/109/177 55/110/178 56/112/179
f 55/110/180 50/111/181 56/112/182
